<mxfile host="app.diagrams.net" modified="2023-05-29T12:16:26.355Z" agent="Mozilla/5.0 (Windows NT 10.0; Win64; x64) AppleWebKit/537.36 (KHTML, like Gecko) Chrome/113.0.0.0 Safari/537.36 Edg/113.0.1774.50" etag="OHYFZ5z-x-FPh0W8mhCU" version="21.3.2" type="device">
  <diagram name="Page-1" id="wuKPKg8n7fOWSqLQgW6j">
    <mxGraphModel dx="1271" dy="648" grid="0" gridSize="10" guides="1" tooltips="1" connect="1" arrows="1" fold="1" page="1" pageScale="1" pageWidth="827" pageHeight="1169" math="0" shadow="0">
      <root>
        <mxCell id="0" />
        <mxCell id="1" parent="0" />
      </root>
    </mxGraphModel>
  </diagram>
</mxfile>
